HIERARCHY
ROOT Hips
{
	OFFSET 0.000000 0.000000 0.000000 
	CHANNELS 6 Xposition Yposition Zposition Zrotation Yrotation Xrotation
	JOINT LeftUpLeg
	{
		OFFSET 1.363060 -1.794630 0.839290 
		CHANNELS 3 Zrotation Yrotation Xrotation
		JOINT LeftLeg
		{
			OFFSET 2.448110 -6.726130 0.000000 
			CHANNELS 3 Zrotation Yrotation Xrotation
			JOINT LeftFoot
			{
				OFFSET 2.562200 -7.039590 0.000000 
				CHANNELS 3 Zrotation Yrotation Xrotation
				JOINT LeftToeBase
				{
					OFFSET 0.157640 -0.433110 2.322550 
					CHANNELS 3 Zrotation Yrotation Xrotation
					End Site
					{
						OFFSET 0.000000 0.000000 0.000000 
					}
				}
			}
		}
	}
	JOINT RightUpLeg
	{
		OFFSET -1.305520 -1.794630 0.839290 
		CHANNELS 3 Zrotation Yrotation Xrotation
		JOINT RightLeg
		{
			OFFSET -2.542530 -6.985550 0.000000 
			CHANNELS 3 Zrotation Yrotation Xrotation
			JOINT RightFoot
			{
				OFFSET -2.568260 -7.056230 0.000000 
				CHANNELS 3 Zrotation Yrotation Xrotation
				JOINT RightToeBase
				{
					OFFSET -0.164730 -0.452590 2.363150 
					CHANNELS 3 Zrotation Yrotation Xrotation
					End Site
					{
						OFFSET 0.000000 0.000000 0.000000 
					}
				}
			}
		}
	}
	JOINT Spine
	{
		OFFSET 0.028270 2.035590 -0.193380 
		CHANNELS 3 Zrotation Yrotation Xrotation
		JOINT Spine1
		{
			OFFSET 0.056720 2.048850 -0.042750 
			CHANNELS 3 Zrotation Yrotation Xrotation
			JOINT Neck1
			{
				OFFSET -0.054170 1.746240 0.172020 
				CHANNELS 3 Zrotation Yrotation Xrotation
				JOINT Head
				{
					OFFSET 0.104070 1.761360 -0.123970 
					CHANNELS 3 Zrotation Yrotation Xrotation
					End Site
					{
						OFFSET 0.000000 0.000000 0.000000 
					}
				}
			}
			JOINT LeftArm
			{
				OFFSET 3.362410 1.200890 -0.311210 
				CHANNELS 3 Zrotation Yrotation Xrotation
				JOINT LeftForeArm
				{
					OFFSET 4.983000 -0.000000 -0.000000 
					CHANNELS 3 Zrotation Yrotation Xrotation
					JOINT LeftHand
					{
						OFFSET 3.483560 -0.000000 -0.000000 
						CHANNELS 3 Zrotation Yrotation Xrotation
						JOINT LeftHandIndex1
						{
							OFFSET 0.715260 -0.000000 -0.000000 
							CHANNELS 3 Zrotation Yrotation Xrotation
							End Site
							{
								OFFSET 0.000000 0.000000 0.000000 
							}
						}
					}
				}
			}
			JOINT RightArm
			{
				OFFSET -3.136600 1.374050 -0.404650 
				CHANNELS 3 Zrotation Yrotation Xrotation
				JOINT RightForeArm
				{
					OFFSET -5.241900 -0.000000 -0.000000 
					CHANNELS 3 Zrotation Yrotation Xrotation
					JOINT RightHand
					{
						OFFSET -3.444170 -0.000000 -0.000000 
						CHANNELS 3 Zrotation Yrotation Xrotation
						JOINT RightHandIndex1
						{
							OFFSET -0.622530 -0.000000 -0.000000 
							CHANNELS 3 Zrotation Yrotation Xrotation
							End Site
							{
								OFFSET 0.000000 0.000000 0.000000 
							}
						}
					}
				}
			}
		}
	}
}
MOTION
Frames: 9
Frame Time: 0.041667
-40.602600 17.257398 -1.009392 58.848189 86.528852 64.719893 -16.473698 0.245328 -4.937689 -0.147631 9.395425 26.624128 0.048586 4.400138 -14.548791 0.384900 -3.984300 -11.032400 8.860023 0.108633 -13.673204 -3.203111 -13.604396 39.445498 0.525602 -6.319999 -14.897407 -0.442700 4.269100 -11.835000 -0.000219 2.235958 -3.006180 1.953531 0.823995 5.629904 4.928593 -12.126149 9.236828 7.928700 -5.228400 2.143400 -81.808705 8.419098 66.619153 114.604940 -56.364035 -78.675819 -1.476846 0.625494 -1.367158 -7.125000 0.000000 0.000000 83.190927 -15.449968 42.770748 -91.913705 61.293523 -62.887679 -0.817346 -0.796696 -25.524343 7.125000 0.000000 0.000000 
-40.546122 17.234740 -1.000599 56.585058 86.275084 62.517316 -16.657818 0.579931 -4.854896 -0.137313 9.376367 26.618409 0.108354 4.266535 -14.727451 0.440400 -4.258200 -11.804200 8.662309 0.070598 -13.951906 -3.434977 -13.845735 40.238351 0.235919 -5.545589 -15.052186 -0.459100 4.346700 -12.054100 -0.029998 2.255055 -2.996497 1.792240 0.827617 5.594117 4.961429 -12.177579 9.085793 7.945200 -5.218700 2.104000 -81.786034 7.633686 66.659210 114.764753 -56.317560 -78.769338 -1.480923 0.611558 -4.043746 -7.125000 0.000000 0.000000 83.612068 -15.868364 43.152721 -92.946237 61.221000 -63.486248 -0.670683 -0.846222 -28.859142 7.125000 0.000000 0.000000 
-40.487952 17.212757 -0.991129 53.685545 86.078557 59.683660 -16.742215 0.910258 -4.715568 -0.159262 9.293846 26.441892 0.087546 4.371751 -14.902501 0.498900 -4.528400 -12.568300 8.554662 0.038187 -14.301785 -3.715155 -14.139489 41.214782 0.145423 -5.285233 -15.036395 -0.585800 4.900600 -13.625400 -0.064764 2.339439 -2.988572 1.586109 0.870310 5.530802 5.049040 -12.268233 8.909940 8.008000 -5.219700 2.092300 -81.778878 6.811569 66.735597 114.928977 -56.272533 -78.857110 -1.480361 0.587772 -6.643616 -7.125000 0.000000 0.000000 84.232252 -16.107439 43.311676 -93.677882 61.128658 -63.869292 -0.460556 -0.909556 -32.157867 7.125000 0.000000 0.000000 
-40.434743 17.182094 -0.978842 53.040092 85.690904 59.117841 -17.061655 1.134460 -4.580677 -0.178851 9.237316 26.330270 0.075616 4.498760 -15.263202 0.603800 -4.973800 -13.833900 8.235131 -0.213675 -14.813159 -4.017593 -14.417342 42.182938 0.003631 -4.865243 -14.982033 -0.648200 5.150200 -14.337300 -0.103385 2.326789 -3.031114 1.451478 0.879903 4.863241 5.240870 -12.198300 8.669472 8.257400 -5.170000 1.649100 -81.795404 6.686212 66.692143 114.866363 -56.273512 -78.774161 -1.498365 0.533193 -8.530058 -7.125000 0.000000 0.000000 84.903518 -17.002916 43.560945 -94.370703 61.030903 -64.226040 -0.228021 -0.956898 -35.675488 7.125000 0.000000 0.000000 
-40.386720 17.130576 -0.968245 53.125586 85.210679 59.361136 -17.500588 1.161588 -4.234510 -0.213336 9.160907 26.129350 0.386975 3.713311 -15.806614 0.464600 -4.372200 -12.126100 7.830945 -0.593812 -15.510857 -4.384555 -14.749634 43.328927 -0.324282 -3.992581 -15.251288 -0.621300 5.044100 -14.034300 -0.131099 2.250845 -3.022039 1.428985 0.824044 4.842663 5.353771 -12.062522 8.420685 8.338400 -5.041900 1.466700 -82.052406 5.798379 66.608448 114.523944 -56.321680 -78.469031 -1.526497 0.487197 -9.726216 -7.125000 0.000000 0.000000 85.279145 -17.276447 43.806773 -95.164709 60.952498 -64.764390 0.000381 -0.967517 -39.267466 7.125000 0.000000 0.000000 
-40.319420 17.123249 -0.958099 51.925721 84.828720 58.265893 -17.828356 1.624463 -4.248308 -0.249943 9.096454 26.002410 -0.222198 5.585353 -16.032688 1.157400 -6.830300 -19.213400 7.590862 -0.875148 -15.960736 -4.722937 -15.048778 44.385727 -0.622993 -3.159285 -15.413373 -0.639900 5.117600 -14.244200 -0.145143 2.196519 -2.952527 1.464435 0.758669 5.378378 5.431856 -12.150408 8.096136 8.364200 -4.964100 1.530800 -82.441789 4.243678 66.526582 114.304326 -56.339437 -78.272340 -1.561133 0.432419 -10.971566 -7.125000 0.000000 0.000000 85.450284 -16.978858 43.889476 -96.127910 60.875830 -65.539420 0.233096 -0.956205 -42.817870 7.125000 0.000000 0.000000 
-40.263731 17.082891 -0.947728 51.299296 84.461678 57.719113 -18.152014 1.574255 -3.786541 -0.271339 9.031556 25.817594 0.289681 4.143757 -16.340663 0.506100 -4.560300 -12.658600 7.300764 -1.079369 -16.482615 -5.116565 -15.393281 45.615660 -0.822564 -2.564599 -15.447367 -0.712500 5.394400 -15.036900 -0.149571 2.035942 -2.867926 1.479241 0.623181 6.190117 5.452851 -12.195413 7.926837 8.179400 -4.884200 1.829000 -82.743052 2.430294 65.868557 114.909552 -56.178725 -78.874919 -1.633148 0.240380 -14.332657 -7.125000 0.000000 0.000000 85.575545 -16.273748 44.209314 -96.800413 60.807853 -66.098584 0.471616 -0.932135 -46.414185 7.125000 0.000000 0.000000 
-40.193049 17.076353 -0.935328 50.509988 84.102065 57.066236 -18.443568 2.187013 -3.950490 -0.267222 9.013649 25.799269 0.067961 4.767146 -16.215748 0.582800 -4.888200 -13.590100 7.030991 -1.213856 -16.920901 -5.465291 -15.678902 46.665650 -1.064803 -1.773087 -15.285789 -0.696900 5.336200 -14.870100 -0.136080 1.724335 -2.817373 1.538234 0.409815 6.851586 5.434753 -11.887520 7.996869 7.921200 -4.700800 2.195000 -83.028753 0.989999 65.090375 115.235290 -56.079778 -79.248651 -1.673295 0.092973 -17.184018 -7.125000 0.000000 0.000000 85.643503 -15.805524 45.572352 -98.780996 60.554452 -67.706563 0.903707 -0.846308 -53.044124 7.125000 0.000000 0.000000 
-40.132512 17.039490 -0.925069 48.890927 83.867318 55.641938 -18.545543 2.429582 -3.735478 -0.271216 8.929266 25.552750 0.809709 2.478679 -16.051275 0.039100 -1.275900 -3.508400 6.862008 -1.224036 -17.544138 -5.866163 -16.027001 47.924102 -1.139475 -1.377319 -14.837774 -0.845900 5.866300 -16.396900 -0.154009 1.760478 -2.790141 1.490666 0.412963 7.113987 5.376114 -11.805575 8.060996 7.847300 -4.653600 2.446000 -83.414860 -0.349542 65.255560 114.925476 -56.118907 -78.959150 -1.691243 -0.016860 -19.283749 -7.125000 0.000000 0.000000 86.037485 -15.624113 44.671837 -98.127307 60.626365 -67.269545 0.961122 -0.812584 -53.624870 7.125000 0.000000 0.000000 
